HIERARCHY
ROOT Root
{
	OFFSET 0.00000 0.00000 0.00000
	CHANNELS 6 Xposition Yposition Zposition Zrotation Xrotation Yrotation
	JOINT Hip
	{
		OFFSET 0 0 0	
		CHANNELS 3 Zrotation Xrotation Yrotation
		JOINT Tummy
		{
			OFFSET 0 0.04 0	
			CHANNELS 3 Zrotation Xrotation Yrotation
			JOINT ChestBottom
			{
				OFFSET 0 0.194 0	
				CHANNELS 3 Zrotation Xrotation Yrotation
				JOINT ChestTop
				{
					OFFSET 0 0.166 0	
					CHANNELS 3 Zrotation Xrotation Yrotation
					JOINT LeftCollar
					{
						OFFSET 0 0.1 0	
						CHANNELS 3 Zrotation Xrotation Yrotation
						JOINT LeftUpperArm
						{
							OFFSET 0.156 -0.02 0.03	
							CHANNELS 3 Zrotation Xrotation Yrotation
							JOINT LeftForeArm
							{
								OFFSET 0.035 -0.27 -0.01	
								CHANNELS 3 Zrotation Xrotation Yrotation
								JOINT LeftHand
								{
									OFFSET 0.01 -0.27 0.01	
									CHANNELS 3 Zrotation Xrotation Yrotation
									End Site
									{
										OFFSET 0 -0.15 0
									}
								}
							}
						}
					}
					JOINT RightCollar
					{
						OFFSET 0 0.1 0	
						CHANNELS 3 Zrotation Xrotation Yrotation
						JOINT RightUpperArm
						{
							OFFSET -0.156 -0.02 0.03	
							CHANNELS 3 Zrotation Xrotation Yrotation
							JOINT RightForeArm
							{
								OFFSET -0.035 -0.27 -0.01	
								CHANNELS 3 Zrotation Xrotation Yrotation
								JOINT RightHand
								{
									OFFSET -0.01 -0.27 0.01	
									CHANNELS 3 Zrotation Xrotation Yrotation
									End Site
									{
										OFFSET 0 -0.15 0
									}
								}
							}
						}
					}
					JOINT Neck
					{
						OFFSET 0 0.1 0	
						CHANNELS 3 Zrotation Xrotation Yrotation
						JOINT Head
						{
							OFFSET 0 0.127 0.03	
							CHANNELS 3 Zrotation Xrotation Yrotation
							End Site
							{
								OFFSET 0 0.127 0.03
							}
						}
					}
				}
			}
		}
	}
	JOINT LeftHip
	{
		OFFSET 0 0 0	
		CHANNELS 3 Zrotation Xrotation Yrotation
		JOINT LeftThigh
		{
			OFFSET 0.088 -0.06 0	
			CHANNELS 3 Zrotation Xrotation Yrotation
			JOINT LeftLowerLeg
			{
				OFFSET 0 -0.39 0.02	
				CHANNELS 3 Zrotation Xrotation Yrotation
				JOINT LeftFootTop
				{
					OFFSET 0 -0.43 -0.02	
					CHANNELS 3 Zrotation Xrotation Yrotation
					JOINT LeftFootFront
					{
						OFFSET 0 -0.07 0.085	
						CHANNELS 3 Zrotation Xrotation Yrotation
						End Site
						{
							OFFSET 0 -0.005 0.09
						}
					}
				}
				JOINT LeftHeel
				{
					OFFSET 0 -0.43 -0.02	
					CHANNELS 3 Zrotation Xrotation Yrotation
					End Site
					{
						OFFSET 0 -0.075 -0.05
					}
				}
			}
		}
	}
	JOINT RightHip
	{
		OFFSET 0 0 0	
		CHANNELS 3 Zrotation Xrotation Yrotation
		JOINT RightThigh
		{
			OFFSET -0.088 -0.06 0	
			CHANNELS 3 Zrotation Xrotation Yrotation
			JOINT RightLowerLeg
			{
				OFFSET 0 -0.39 0.02	
				CHANNELS 3 Zrotation Xrotation Yrotation
				JOINT RightFootTop
				{
					OFFSET 0 -0.43 -0.02	
					CHANNELS 3 Zrotation Xrotation Yrotation
					JOINT RightFootFront
					{
						OFFSET 0 -0.07 0.085	
						CHANNELS 3 Zrotation Xrotation Yrotation
						End Site
						{
							OFFSET 0 -0.005 0.09
						}
					}
				}
				JOINT RightHeel
				{
					OFFSET 0 -0.43 -0.02	
					CHANNELS 3 Zrotation Xrotation Yrotation
					End Site
					{
						OFFSET 0 -0.075 -0.05
					}
				}
			}
		}
	}
}
MOTION
Frames: 29
Frame Time: 0.025
0 0.955 0 -0 0 -0 -2.7139 3.6734 38.06 -1.1958 1.7456 -5.1136 -1.1958 1.7456 -5.1136 -1.015 1.4592 -4.2977 -0 0 -0 13.607 -9.4893 35.544 6.3292 9.1423 10.82 6.1711 10.293 -10.121 -0 0 -0 34.484 -17.824 22.412 15.15 -1.7012 8.0442 -40.899 30.349 -88.074 5.3262 -13.074 -0.31432 5.3262 -13.074 -0.31432 -0 0 -0 -0 0 -0 -0 0 -0 -0 0 -0 -0 0 -0 -0 0 -0 -0 0 -0 -0 0 -0 -0 0 -0 -0 0 -0 -0 0 -0 -0 0 -0 
0 0.955 0 -0 0 -0 -3.1979 4.3365 40.097 -1.2177 1.7561 -5.4377 -1.2177 1.7561 -5.4377 -1.0341 1.4675 -4.5699 -0 0 -0 14.104 -10.398 36.017 7.0994 10.209 10.897 6.1844 10.895 -9.5743 -0 0 -0 34.726 -18.674 29.064 17.917 -5.3729 8.3267 -43.961 30.016 -80.503 5.5337 -13.583 -0.54581 5.5337 -13.583 -0.54581 -0 0 -0 -0 0 -0 -0 0 -0 -0 0 -0 -0 0 -0 -0 0 -0 -0 0 -0 -0 0 -0 -0 0 -0 -0 0 -0 -0 0 -0 -0 0 -0 
0 0.955 0 -0 0 -0 -3.7039 4.882 42.066 -1.1158 1.7475 -5.8158 -1.1157 1.7475 -5.8158 -0.94919 1.4604 -4.8873 -0 0 -0 14.479 -11.063 36.325 7.5551 11.626 11.533 6.4133 11.64 -9.5206 -0 0 -0 35.004 -19.84 35.476 20.183 -8.8965 9.3293 -45.691 30.173 -74.249 5.5639 -13.997 -0.7064 5.5639 -13.997 -0.7064 -0 0 -0 -0 0 -0 -0 0 -0 -0 0 -0 -0 0 -0 -0 0 -0 -0 0 -0 -0 0 -0 -0 0 -0 -0 0 -0 -0 0 -0 -0 0 -0 
0 0.955 0 -0 0 -0 -4.1522 5.2675 43.904 -0.92819 1.7572 -6.1787 -0.92819 1.7571 -6.1787 -0.79246 1.4694 -5.1917 -0 0 -0 14.783 -11.62 36.667 7.7946 13.298 12.371 6.9064 12.619 -10.081 -0 0 -0 35.668 -21.268 40.859 22.003 -11.804 12.056 -46.687 30.86 -69.298 5.459 -14.331 -0.8679 5.459 -14.331 -0.8679 -0 0 -0 -0 0 -0 -0 0 -0 -0 0 -0 -0 0 -0 -0 0 -0 -0 0 -0 -0 0 -0 -0 0 -0 -0 0 -0 -0 0 -0 -0 0 -0 
0 0.955 0 -0 0 -0 -4.4973 5.515 45.558 -0.78093 1.749 -6.467 -0.78093 1.749 -6.467 -0.66929 1.4634 -5.4336 -0 0 -0 15.214 -11.993 37.219 7.9597 15.103 13.051 7.8562 13.713 -11.06 -0 0 -0 37.053 -22.765 44.494 23.504 -13.78 17.061 -47.083 31.986 -65.414 5.3589 -14.517 -1.1073 5.3589 -14.517 -1.1073 -0 0 -0 -0 0 -0 -0 0 -0 -0 0 -0 -0 0 -0 -0 0 -0 -0 0 -0 -0 0 -0 -0 0 -0 -0 0 -0 -0 0 -0 -0 0 -0 
0 0.955 0 -0 0 -0 -4.7193 5.6665 47.016 -0.75318 1.6863 -6.7072 -0.75318 1.6863 -6.7072 -0.64599 1.4108 -5.6352 -0 0 -0 15.862 -12.043 38.138 8.167 16.896 13.4 9.5801 14.652 -12.103 -0 0 -0 39.174 -24.095 46.317 24.899 -14.773 23.853 -47.268 33.128 -61.484 5.3719 -14.492 -1.3911 5.3719 -14.492 -1.3911 -0 0 -0 -0 0 -0 -0 0 -0 -0 0 -0 -0 0 -0 -0 0 -0 -0 0 -0 -0 0 -0 -0 0 -0 -0 0 -0 -0 0 -0 -0 0 -0 
0 0.955 0 -0 0 -0 -4.8252 5.7959 48.253 -0.82205 1.5552 -6.9582 -0.82205 1.5552 -6.9582 -0.70328 1.2999 -5.8461 -0 0 -0 16.598 -11.721 39.441 8.4129 18.567 13.549 12.392 15.03 -12.829 -0 0 -0 41.76 -25.159 46.86 26.438 -14.803 31.159 -48.297 33.274 -55.647 5.4838 -14.275 -1.6092 5.4838 -14.275 -1.6092 -0 0 -0 -0 0 -0 -0 0 -0 -0 0 -0 -0 0 -0 -0 0 -0 -0 0 -0 -0 0 -0 -0 0 -0 -0 0 -0 -0 0 -0 -0 0 -0 
0 0.955 0 -0 0 -0 -4.8344 5.9755 49.233 -0.96043 1.3553 -7.214 -0.96043 1.3553 -7.214 -0.81832 1.1305 -6.0611 -0 0 -0 17.296 -11.088 40.886 8.7257 20.039 13.596 16.206 14.61 -12.689 -0 0 -0 44.584 -26.009 46.871 28.192 -13.817 37.46 -51.05 31.008 -46.752 5.633 -13.918 -1.7347 5.633 -13.918 -1.7347 -0 0 -0 -0 0 -0 -0 0 -0 -0 0 -0 -0 0 -0 -0 0 -0 -0 0 -0 -0 0 -0 -0 0 -0 -0 0 -0 -0 0 -0 -0 0 -0 
0 0.955 0 -0 0 -0 -4.7708 6.253 49.962 -1.163 1.1048 -7.4306 -1.163 1.1048 -7.4306 -0.98668 0.91802 -6.2431 -0 0 -0 17.908 -10.274 42.134 9.1393 21.243 13.536 20.35 13.815 -11.453 -0 0 -0 47.472 -26.685 47.23 29.744 -12.065 41.613 -54.943 25.347 -35.566 5.7805 -13.487 -1.8197 5.7805 -13.487 -1.8197 -0 0 -0 -0 0 -0 -0 0 -0 -0 0 -0 -0 0 -0 -0 0 -0 -0 0 -0 -0 0 -0 -0 0 -0 -0 0 -0 -0 0 -0 -0 0 -0 
0 0.955 0 -0 0 -0 -4.6496 6.6353 50.448 -1.4226 0.83035 -7.5743 -1.4226 0.83034 -7.5743 -1.2025 0.68496 -6.3638 -0 0 -0 18.387 -9.4116 42.978 9.5006 22.148 13.632 23.983 13.289 -9.6234 -0 0 -0 50.208 -27.063 48.781 30.369 -10.443 43.708 -58.041 16.999 -25.109 5.9306 -13.032 -1.9113 5.9306 -13.032 -1.9113 -0 0 -0 -0 0 -0 -0 0 -0 -0 0 -0 -0 0 -0 -0 0 -0 -0 0 -0 -0 0 -0 -0 0 -0 -0 0 -0 -0 0 -0 -0 0 -0 
0 0.955 0 -0 0 -0 -4.4892 7.0917 50.684 -1.7191 0.54546 -7.6378 -1.7191 0.54546 -7.6378 -1.4492 0.44286 -6.4168 -0 0 -0 18.723 -8.5831 43.376 9.4889 22.676 14.418 26.636 13.165 -7.7839 -0 0 -0 52.546 -27.024 51.932 29.69 -10.042 44.953 -58.826 8.9331 -18.663 6.098 -12.568 -2.019 6.098 -12.568 -2.019 -0 0 -0 -0 0 -0 -0 0 -0 -0 0 -0 -0 0 -0 -0 0 -0 -0 0 -0 -0 0 -0 -0 0 -0 -0 0 -0 -0 0 -0 -0 0 -0 
0 0.955 0 -0 0 -0 -4.2912 7.57 50.676 -2.0179 0.26577 -7.6494 -2.0179 0.26578 -7.6494 -1.6977 0.20518 -6.4262 -0 0 -0 18.981 -7.8461 43.414 8.7959 22.744 16.284 28.454 13.202 -6.0956 -0 0 -0 54.287 -26.667 56.531 27.826 -11.214 46.154 -57.591 3.8425 -17.204 6.2665 -12.108 -2.1063 6.2665 -12.108 -2.1063 -0 0 -0 -0 0 -0 -0 0 -0 -0 0 -0 -0 0 -0 -0 0 -0 -0 0 -0 -0 0 -0 -0 0 -0 -0 0 -0 -0 0 -0 -0 0 -0 
0 0.955 0 -0 0 -0 -4.0378 8.031 50.46 -2.2907 0.0088617 -7.6515 -2.2907 0.0088603 -7.6515 -1.9246 -0.013117 -6.4274 -0 0 -0 19.157 -7.2447 43.317 7.455 22.335 19.087 29.815 13.172 -4.4438 -0 0 -0 55.398 -26.226 62.037 24.979 -13.25 46.964 -55.464 1.3819 -19.423 6.4015 -11.674 -2.1306 6.4015 -11.674 -2.1306 -0 0 -0 -0 0 -0 -0 0 -0 -0 0 -0 -0 0 -0 -0 0 -0 -0 0 -0 -0 0 -0 -0 0 -0 -0 0 -0 -0 0 -0 -0 0 -0 
0 0.955 0 -0 0 -0 -3.7029 8.4492 50.106 -2.5284 -0.22211 -7.6777 -2.5284 -0.22211 -7.6777 -2.1222 -0.20938 -6.4487 -0 0 -0 19.149 -6.8094 43.376 5.8565 21.497 22.331 30.811 12.893 -2.6445 -0 0 -0 56 -25.784 67.611 21.443 -14.861 46.834 -53.786 -1.2491 -22.951 6.4741 -11.264 -2.0777 6.4741 -11.264 -2.0777 -0 0 -0 -0 0 -0 -0 0 -0 -0 0 -0 -0 0 -0 -0 0 -0 -0 0 -0 -0 0 -0 -0 0 -0 -0 0 -0 -0 0 -0 -0 0 -0 
0 0.955 0 -0 0 -0 -3.2701 8.8004 49.668 -2.7146 -0.43763 -7.7408 -2.7146 -0.43763 -7.7408 -2.2766 -0.39233 -6.501 -0 0 -0 18.868 -6.6243 43.787 4.3537 20.351 25.623 31.331 12.222 -0.47774 -0 0 -0 56.205 -25.242 72.34 17.642 -14.933 45.707 -53.783 -6.8426 -26.264 6.4436 -10.845 -1.9508 6.4436 -10.845 -1.9508 -0 0 -0 -0 0 -0 -0 0 -0 -0 0 -0 -0 0 -0 -0 0 -0 -0 0 -0 -0 0 -0 -0 0 -0 -0 0 -0 -0 0 -0 -0 0 -0 
0 0.955 0 -0 0 -0 -2.7646 9.0808 49.176 -2.819 -0.65403 -7.8338 -2.819 -0.65403 -7.8338 -2.3623 -0.5754 -6.5784 -0 0 -0 18.296 -6.8287 44.558 3.082 19.003 28.929 31.351 11.13 2.2554 -0 0 -0 56.032 -24.521 75.681 13.702 -12.999 44.071 -55.923 -16.392 -29.821 6.2681 -10.396 -1.76 6.2681 -10.396 -1.76 -0 0 -0 -0 0 -0 -0 0 -0 -0 0 -0 -0 0 -0 -0 0 -0 -0 0 -0 -0 0 -0 -0 0 -0 -0 0 -0 -0 0 -0 -0 0 -0 
0 0.955 0 -0 0 -0 -2.2681 9.2972 48.644 -2.8218 -0.88524 -7.9335 -2.8218 -0.88524 -7.9335 -2.3625 -0.77001 -6.6613 -0 0 -0 17.497 -7.5108 45.549 2.0976 17.495 32.303 30.839 9.7725 5.7682 -0 0 -0 55.465 -23.629 77.677 9.2898 -9.3571 42.653 -60.447 -29.227 -35.456 5.9469 -9.922 -1.532 5.9469 -9.922 -1.532 -0 0 -0 -0 0 -0 -0 0 -0 -0 0 -0 -0 0 -0 -0 0 -0 -0 0 -0 -0 0 -0 -0 0 -0 -0 0 -0 -0 0 -0 -0 0 -0 
0 0.955 0 -0 0 -0 -1.9123 9.4101 48.104 -2.7061 -1.1364 -8.019 -2.7061 -1.1364 -8.019 -2.2628 -0.98024 -6.7323 -0 0 -0 16.559 -8.6617 46.579 1.467 15.88 35.512 29.668 8.3678 10.441 -0 0 -0 54.498 -22.596 78.843 3.9341 -4.8541 41.655 -68.427 -43.754 -45.475 5.5213 -9.4275 -1.3031 5.5213 -9.4275 -1.3031 -0 0 -0 -0 0 -0 -0 0 -0 -0 0 -0 -0 0 -0 -0 0 -0 -0 0 -0 -0 0 -0 -0 0 -0 -0 0 -0 -0 0 -0 -0 0 -0 
0 0.955 0 -0 0 -0 -1.751 9.3382 47.588 -2.4806 -1.3711 -8.073 -2.4806 -1.3711 -8.073 -2.071 -1.1754 -6.7772 -0 0 -0 15.58 -10.268 47.399 1.1849 14.204 38.306 27.893 6.9558 16.497 -0 0 -0 53.114 -21.468 79.944 -2.2419 -0.1206 39.909 -83.008 -58.115 -63.035 5.0607 -8.9252 -1.1122 5.0607 -8.9252 -1.1122 -0 0 -0 -0 0 -0 -0 0 -0 -0 0 -0 -0 0 -0 -0 0 -0 -0 0 -0 -0 0 -0 -0 0 -0 -0 0 -0 -0 0 -0 -0 0 -0 
0 0.955 0 -0 0 -0 -1.643 9.1388 47.076 -2.2616 -1.5528 -8.0602 -2.2616 -1.5528 -8.0602 -1.8853 -1.326 -6.7662 -0 0 -0 14.762 -12.269 47.632 1.1121 12.524 40.673 25.837 5.3575 23.668 -0 0 -0 51.321 -20.279 81.332 -8.2136 4.8996 35.848 -112.42 -69.539 -95.417 4.6736 -8.422 -1.0213 4.6736 -8.422 -1.0213 -0 0 -0 -0 0 -0 -0 0 -0 -0 0 -0 -0 0 -0 -0 0 -0 -0 0 -0 -0 0 -0 -0 0 -0 -0 0 -0 -0 0 -0 -0 0 -0 
0 0.955 0 -0 0 -0 -1.4873 8.8983 46.536 -2.1154 -1.7153 -7.9362 -2.1154 -1.7153 -7.9362 -1.7612 -1.4608 -6.6619 -0 0 -0 14.148 -14.474 47.02 1.1008 10.863 42.814 23.783 3.1259 31.32 -0 0 -0 48.984 -18.914 82.7 -12.652 10.399 28.167 -163.74 -73.022 -148.14 4.407 -7.9028 -1.0951 4.407 -7.9028 -1.0951 -0 0 -0 -0 0 -0 -0 0 -0 -0 0 -0 -0 0 -0 -0 0 -0 -0 0 -0 -0 0 -0 -0 0 -0 -0 0 -0 -0 0 -0 -0 0 -0 
0 0.955 0 -0 0 -0 -1.2799 8.6427 45.988 -1.9381 -1.8517 -7.7354 -1.9381 -1.8517 -7.7354 -1.6113 -1.5733 -6.4932 -0 0 -0 13.476 -16.875 45.848 1.056 9.0803 45.04 21.782 -0.33051 38.726 -0 0 -0 45.721 -17.295 83.697 -14.582 15.883 15.554 151.25 -67.128 168.37 4.1532 -7.4807 -1.2603 4.1532 -7.4807 -1.2603 -0 0 -0 -0 0 -0 -0 0 -0 -0 0 -0 -0 0 -0 -0 0 -0 -0 0 -0 -0 0 -0 -0 0 -0 -0 0 -0 -0 0 -0 -0 0 -0 
0 0.955 0 -0 0 -0 -1.0604 8.3606 45.467 -1.556 -1.7965 -7.6209 -1.556 -1.7965 -7.6209 -1.2911 -1.5232 -6.3979 -0 0 -0 12.583 -19.883 45.042 1.0129 6.8973 47.37 19.78 -5.2116 45.279 -0 0 -0 41.457 -15.71 84.143 -13.848 20.259 -2.4235 122.81 -56.486 144.99 3.7786 -7.4675 -1.2291 3.7786 -7.4675 -1.2291 -0 0 -0 -0 0 -0 -0 0 -0 -0 0 -0 -0 0 -0 -0 0 -0 -0 0 -0 -0 0 -0 -0 0 -0 -0 0 -0 -0 0 -0 -0 0 -0 
0 0.955 0 -0 0 -0 -0.88334 8.0306 45.008 -1.0845 -1.5656 -7.6639 -1.0844 -1.5656 -7.6639 -0.89697 -1.3251 -6.4354 -0 0 -0 11.821 -23.233 44.996 1.1819 4.0673 49.361 17.635 -11.065 50.737 -0 0 -0 36.894 -14.19 82.34 -11.588 22.352 -23.209 102.22 -44.404 133.81 3.4025 -7.7654 -0.93956 3.4025 -7.7654 -0.93956 -0 0 -0 -0 0 -0 -0 0 -0 -0 0 -0 -0 0 -0 -0 0 -0 -0 0 -0 -0 0 -0 -0 0 -0 -0 0 -0 -0 0 -0 -0 0 -0 
0 0.955 0 -0 0 -0 -0.79733 7.6337 44.654 -0.77205 -1.4459 -7.7985 -0.77205 -1.4459 -7.7985 -0.63537 -1.2218 -6.5492 -0 0 -0 11.412 -25.916 45.266 1.7751 0.39701 50.445 15.283 -17.138 55.256 -0 0 -0 33.089 -12.073 76.305 -10.12 21.672 -41.75 83.495 -35.466 128.63 3.1924 -7.8182 -0.61219 3.1924 -7.8182 -0.6122 -0 0 -0 -0 0 -0 -0 0 -0 -0 0 -0 -0 0 -0 -0 0 -0 -0 0 -0 -0 0 -0 -0 0 -0 -0 0 -0 -0 0 -0 -0 0 -0 
0 0.955 0 -0 0 -0 -0.80226 7.1565 44.42 -0.62267 -1.4984 -8.0495 -0.62267 -1.4984 -8.0495 -0.50897 -1.2648 -6.7603 -0 0 -0 11.318 -27.694 45.568 2.7208 -4.1339 50.556 13.095 -22.817 59.05 -0 0 -0 30.762 -9.3724 66.577 -10.982 19.272 -54.319 63.795 -32.921 122.61 3.1407 -7.4699 -0.27151 3.1407 -7.4699 -0.27152 -0 0 -0 -0 0 -0 -0 0 -0 -0 0 -0 -0 0 -0 -0 0 -0 -0 0 -0 -0 0 -0 -0 0 -0 -0 0 -0 -0 0 -0 -0 0 -0 
0 0.955 0 -0 0 -0 -0.86014 6.6004 44.321 -0.52819 -1.6124 -8.4712 -0.52819 -1.6124 -8.4712 -0.42772 -1.3599 -7.1145 -0 0 -0 11.645 -28.807 45.788 3.5563 -9.3359 50.665 11.545 -27.89 61.862 -0 0 -0 29.643 -7.2407 54.604 -13.885 16.408 -59.347 42.588 -34.358 109.06 3.1888 -6.9122 0.16269 3.1888 -6.9122 0.16269 -0 0 -0 -0 0 -0 -0 0 -0 -0 0 -0 -0 0 -0 -0 0 -0 -0 0 -0 -0 0 -0 -0 0 -0 -0 0 -0 -0 0 -0 -0 0 -0 
0 0.955 0 -0 0 -0 -0.94399 5.9532 44.421 -0.44522 -1.6937 -9.0352 -0.44521 -1.6937 -9.0352 -0.35609 -1.4278 -7.5883 -0 0 -0 12.517 -29.517 45.959 3.9012 -15.053 51.971 10.249 -32.299 63.138 -0 0 -0 28.921 -6.6299 41.802 -17.746 13.943 -57.062 20.652 -33.104 87.023 3.3418 -6.3566 0.66016 3.3418 -6.3566 0.66016 -0 0 -0 -0 0 -0 -0 0 -0 -0 0 -0 -0 0 -0 -0 0 -0 -0 0 -0 -0 0 -0 -0 0 -0 -0 0 -0 -0 0 -0 -0 0 -0 
0 0.955 0 -0 0 -0 -1.0705 5.2151 44.749 -0.37289 -1.6568 -9.6604 -0.37289 -1.6568 -9.6604 -0.29451 -1.3963 -8.1136 -0 0 -0 14.002 -30.322 46.594 3.6839 -21.092 54.165 8.2105 -35.711 62.885 -0 0 -0 27.638 -7.6373 29.337 -21.33 11.832 -49.312 2.3092 -24.172 63.617 3.6392 -6.0098 1.1472 3.6392 -6.0098 1.1472 -0 0 -0 -0 0 -0 -0 0 -0 -0 0 -0 -0 0 -0 -0 0 -0 -0 0 -0 -0 0 -0 -0 0 -0 -0 0 -0 -0 0 -0 -0 0 -0 
